<?xml version="1.0" encoding="utf-8"?>
<svg id="master-artboard" viewBox="0 0 325.4194030761719 326.5806579589844" version="1.1" xmlns="http://www.w3.org/2000/svg" x="0px" y="0px" enable-background="new 0 0 1400 980" width="325.4194030761719px" height="326.5806579589844px"><rect id="ee-background" x="0" y="0" width="325.4194030761719" height="326.5806579589844" style="fill: white; fill-opacity: 0; pointer-events: none;"/>
<radialGradient id="SVGID_1_" cx="702.5279" cy="490" r="1035.5322" gradientTransform="matrix(1 0 0 0.7175 0 138.4009)" gradientUnits="userSpaceOnUse">
		<stop offset="0" style="stop-color:#FFFFFF"/>
		<stop offset="0.5006" style="stop-color:#FCFEFF"/>
		<stop offset="0.6809" style="stop-color:#F3FAFE"/>
		<stop offset="0.8094" style="stop-color:#E7F6FD"/>
		<stop offset="0.9126" style="stop-color:#D5EFFC"/>
		<stop offset="1" style="stop-color:#BFE7FB"/>
	</radialGradient>
<path d="M 356.200012 696.599976 A 153.600006 153.600006 0 0 1 202.600006 850.199982 A 153.600006 153.600006 0 0 1 49 696.599976 A 153.600006 153.600006 0 0 1 202.600006 542.999969 A 153.600006 153.600006 0 0 1 356.200012 696.599976 Z" fill="none" stroke="#00AAAD" stroke-width="5" stroke-linecap="round" stroke-linejoin="round" stroke-miterlimit="10" transform="matrix(1, 0, 0, 1, -40.258060455322266, -534.1935424804688)"/><path d="M 279.099994 630.200012 A 15.2 15.2 0 0 1 263.899994 645.400012 A 15.2 15.2 0 0 1 248.699994 630.200012 A 15.2 15.2 0 0 1 263.899994 615.000012 A 15.2 15.2 0 0 1 279.099994 630.200012 Z" fill="none" stroke="#00AAAD" stroke-width="5" stroke-linecap="round" stroke-linejoin="round" stroke-miterlimit="10" transform="matrix(1, 0, 0, 1, -40.258060455322266, -534.1935424804688)"/><path fill="none" stroke="#00AAAD" stroke-width="5" stroke-linecap="round" stroke-linejoin="round" stroke-miterlimit="10" d="&#10;&#9;&#9;&#9;M286.1,729.2c3.2-0.8,5.9-6.9,6.7-12.8c0.8-5.9-5.6-30.5-7.5-43.8c-1.9-13.4-9.6-17.4-14.2-16c-4.5,1.3-37.4,25.1-37.4,25.1&#10;&#9;&#9;&#9;l-62-90.6l-7.5,4.5c0,0,5.6,5.6,4.8,27.3c-0.8,21.7-7.2,63.6-27.5,95.4" transform="matrix(1, 0, 0, 1, -40.258060455322266, -534.1935424804688)"/><path fill="none" stroke="#00AAAD" stroke-width="5" stroke-linecap="round" stroke-linejoin="round" stroke-miterlimit="10" d="&#10;&#9;&#9;&#9;M244.7,729.2c0,0,52.1,0,61.5,0c9.4,0,13.1,7.7,13.1,19c0,11.2,0,19.2,0,19.2h-94.1v-52.7l38.7-6.4l-4-23.5L230.8,699L180,619.7&#10;&#9;&#9;&#9;c0,0-4.8,60.7-21.9,89" transform="matrix(1, 0, 0, 1, -40.258060455322266, -534.1935424804688)"/><path fill="none" stroke="#00AAAD" stroke-width="5" stroke-linecap="round" stroke-linejoin="round" stroke-miterlimit="10" d="&#10;&#9;&#9;&#9;M206.7,767.5V725c0,0-17.6,20-39.6,0c0,0-20,21.7-40.1,0c0,0-16.7,21.7-40.6,0v41.2" transform="matrix(1, 0, 0, 1, -40.258060455322266, -534.1935424804688)"/>

</svg>