<?xml version="1.0" encoding="utf-8"?>
<svg id="master-artboard" viewBox="0 0 326.96783447265625 318.8387756347656" version="1.1" xmlns="http://www.w3.org/2000/svg" x="0px" y="0px" enable-background="new 0 0 1400 980" width="326.96783447265625px" height="318.8387756347656px"><rect id="ee-background" x="0" y="0" width="326.96783447265625" height="318.8387756347656" style="fill: white; fill-opacity: 0; pointer-events: none;"/>
<radialGradient id="SVGID_1_" cx="702.5279" cy="490" r="1035.5322" gradientTransform="matrix(1 0 0 0.7175 0 138.4009)" gradientUnits="userSpaceOnUse">
		<stop offset="0" style="stop-color:#FFFFFF"/>
		<stop offset="0.5006" style="stop-color:#FCFEFF"/>
		<stop offset="0.6809" style="stop-color:#F3FAFE"/>
		<stop offset="0.8094" style="stop-color:#E7F6FD"/>
		<stop offset="0.9126" style="stop-color:#D5EFFC"/>
		<stop offset="1" style="stop-color:#BFE7FB"/>
	</radialGradient>
<path d="M 1030.300018 274.600006 A 153.600006 153.600006 0 0 1 876.700012 428.200012 A 153.600006 153.600006 0 0 1 723.100006 274.600006 A 153.600006 153.600006 0 0 1 876.700012 121 A 153.600006 153.600006 0 0 1 1030.300018 274.600006 Z" fill="none" stroke="#00AAAD" stroke-width="5" stroke-linecap="round" stroke-linejoin="round" stroke-miterlimit="10" transform="matrix(1, 0, 0, 1, -713.806396484375, -114.58064270019531)"/><path d="M 864.599976 238.199997 L 846.200012 226.300003 L 831.599976 249.5 L 855.400024 267 L 855.400024 278.399994" fill="none" stroke="#00AAAD" stroke-width="5" stroke-linecap="round" stroke-linejoin="round" stroke-miterlimit="10" transform="matrix(1, 0, 0, 1, -713.806396484375, -114.58064270019531)"/><path fill="none" stroke="#00AAAD" stroke-width="5" stroke-linecap="round" stroke-linejoin="round" stroke-miterlimit="10" d="&#10;&#9;&#9;&#9;M843.4,281.6c0,0,10-2.9,21.2-4.5l27.4-43.1c0,0,35.6,10.5,60.1,23.8" transform="matrix(1, 0, 0, 1, -713.806396484375, -114.58064270019531)"/><path fill="none" stroke="#00AAAD" stroke-width="5" stroke-linecap="round" stroke-linejoin="round" stroke-miterlimit="10" d="&#10;&#9;&#9;&#9;M943.4,265.4l15.4-13l8.9,9.5l-38.2,29.3c0,0-35.7-0.6-69.5,15.6s-68.5,8.9-68.5,8.9l-1.3-15.9l37.8-10.8" transform="matrix(1, 0, 0, 1, -713.806396484375, -114.58064270019531)"/><path fill="none" stroke="#00AAAD" stroke-width="5" stroke-linecap="round" stroke-linejoin="round" stroke-miterlimit="10" d="&#10;&#9;&#9;&#9;M802.4,296.3c0,0-4.5-8.9-4.2-16.6s26.4-10.5,26.4-10.5s-18.1-13.7-19.7-17.8c-1.6-4.1,20-40.7,28.9-45.8&#10;&#9;&#9;&#9;c8.9-5.1,38.2,19.4,38.2,19.4l6.7-8.3l8.9,8.3l-18.4,26.4l-9.1-6.7l8.8-12.4" transform="matrix(1, 0, 0, 1, -713.806396484375, -114.58064270019531)"/><path fill="none" stroke="#00AAAD" stroke-width="5" stroke-linecap="round" stroke-linejoin="round" stroke-miterlimit="10" d="&#10;&#9;&#9;&#9;M773.7,322.3c0,0,29.5,17.6,69.8,8.3c40.3-9.3,64.4-28.4,103.6-22.6s46.7,32.8,46.7,32.8l-26.1-4.5c0,0-27.7-14-71.2,10.2&#10;&#9;&#9;&#9;c-43.6,24.2-110,32.8-142.8-24.2" transform="matrix(1, 0, 0, 1, -713.806396484375, -114.58064270019531)"/><path d="M 876.5 186.199997 A 16.5 16.5 0 0 1 860 202.699997 A 16.5 16.5 0 0 1 843.5 186.199997 A 16.5 16.5 0 0 1 860 169.699997 A 16.5 16.5 0 0 1 876.5 186.199997 Z" fill="none" stroke="#00AAAD" stroke-width="5" stroke-linecap="round" stroke-linejoin="round" stroke-miterlimit="10" transform="matrix(1, 0, 0, 1, -713.806396484375, -114.58064270019531)"/>

</svg>