<?xml version="1.0" encoding="utf-8"?>
<svg id="master-artboard" viewBox="0 0 323.8710021972656 321.9355163574219" version="1.1" xmlns="http://www.w3.org/2000/svg" x="0px" y="0px" enable-background="new 0 0 1400 980" width="323.8710021972656px" height="321.9355163574219px"><rect id="ee-background" x="0" y="0" width="323.8710021972656" height="321.9355163574219" style="fill: white; fill-opacity: 0; pointer-events: none;"/>
<radialGradient id="SVGID_1_" cx="702.5279" cy="490" r="1035.5322" gradientTransform="matrix(1 0 0 0.7175 0 138.4009)" gradientUnits="userSpaceOnUse">
		<stop offset="0" style="stop-color:#FFFFFF"/>
		<stop offset="0.5006" style="stop-color:#FCFEFF"/>
		<stop offset="0.6809" style="stop-color:#F3FAFE"/>
		<stop offset="0.8094" style="stop-color:#E7F6FD"/>
		<stop offset="0.9126" style="stop-color:#D5EFFC"/>
		<stop offset="1" style="stop-color:#BFE7FB"/>
	</radialGradient>
<path d="M 693.300018 696.599976 A 153.600006 153.600006 0 0 1 539.700012 850.199982 A 153.600006 153.600006 0 0 1 386.100006 696.599976 A 153.600006 153.600006 0 0 1 539.700012 542.999969 A 153.600006 153.600006 0 0 1 693.300018 696.599976 Z" fill="none" stroke="#00AAAD" stroke-width="5" stroke-linecap="round" stroke-linejoin="round" stroke-miterlimit="10" transform="matrix(1, 0, 0, 1, -379.3548278808594, -535.7419294118881)"/><path d="M 456.899988 715.5 A 17.1 17.1 0 0 1 439.799988 732.6 A 17.1 17.1 0 0 1 422.699987 715.5 A 17.1 17.1 0 0 1 439.799988 698.4 A 17.1 17.1 0 0 1 456.899988 715.5 Z" fill="none" stroke="#00AAAD" stroke-width="5" stroke-linecap="round" stroke-linejoin="round" stroke-miterlimit="10" transform="matrix(1, 0, 0, 1, -379.3548278808594, -535.7419294118881)"/><path d="M 499.100006 742.099976 L 520.700012 742.099976 L 564.599976 769.400024 L 605.299988 744.400024 L 621.099976 742.099976 L 644.700012 759.700012 L 668.700012 747.099976 L 603.900024 723.099976 L 600.299988 732.599976 L 566.400024 750.299988 L 552.799988 736.700012" fill="none" stroke="#00AAAD" stroke-width="5" stroke-linecap="round" stroke-linejoin="round" stroke-miterlimit="10" transform="matrix(1, 0, 0, 1, -379.3548278808594, -535.7419294118881)"/><path fill="none" stroke="#00AAAD" stroke-width="5" stroke-linecap="round" stroke-linejoin="round" stroke-miterlimit="10" d="&#10;&#9;&#9;&#9;M541.9,737.2h22.2l12.7-46.2l35.3-5l10.9-21.7l-65.2,13.5l2.3,17.4l-9.1,20.2l-77.4-2.3c-4.5,1.4-9.1,12.7-4.1,19.5&#10;&#9;&#9;&#9;c5,6.8,19.5,19.5,19.5,19.5s-6.8,23.5-5.9,26.3c0.9,2.7,10.9,4.5,14,0c3.2-4.5,6.8-27.2,6.8-27.2l-10-18.6" transform="matrix(1, 0, 0, 1, -379.3548278808594, -535.7419294118881)"/><path d="M 538.799988 687.400024 L 535.099976 698.400024 L 478.600006 698.400024 L 478.600006 679.200012 L 489 679.200012" fill="none" stroke="#00AAAD" stroke-width="5" stroke-linecap="round" stroke-linejoin="round" stroke-miterlimit="10" transform="matrix(1, 0, 0, 1, -379.3548278808594, -535.7419294118881)"/><path d="M 484 679.200012 L 484 668.400024 L 542.400024 671.099976 L 542.400024 687.400024 L 517 687.400024" fill="none" stroke="#00AAAD" stroke-width="5" stroke-linecap="round" stroke-linejoin="round" stroke-miterlimit="10" transform="matrix(1, 0, 0, 1, -379.3548278808594, -535.7419294118881)"/><path d="M 464.100012 624 A 10.9 10.9 0 0 1 453.200012 634.9 A 10.9 10.9 0 0 1 442.300013 624 A 10.9 10.9 0 0 1 453.200012 613.1 A 10.9 10.9 0 0 1 464.100012 624 Z" fill="none" stroke="#00AAAD" stroke-width="5" stroke-linecap="round" stroke-linejoin="round" stroke-miterlimit="10" transform="matrix(1, 0, 0, 1, -379.3548278808594, -535.7419294118881)"/><path d="M 483.999994 648 A 8.1 8.1 0 0 1 475.899994 656.1 A 8.1 8.1 0 0 1 467.799994 648 A 8.1 8.1 0 0 1 475.899994 639.9 A 8.1 8.1 0 0 1 483.999994 648 Z" fill="none" stroke="#00AAAD" stroke-width="5" stroke-linecap="round" stroke-linejoin="round" stroke-miterlimit="10" transform="matrix(1, 0, 0, 1, -379.3548278808594, -535.7419294118881)"/><path d="M 463.199994 668.400024 A 6.3 6.3 0 0 1 456.899994 674.700025 A 6.3 6.3 0 0 1 450.599994 668.400024 A 6.3 6.3 0 0 1 456.899994 662.100024 A 6.3 6.3 0 0 1 463.199994 668.400024 Z" fill="none" stroke="#00AAAD" stroke-width="5" stroke-linecap="round" stroke-linejoin="round" stroke-miterlimit="10" transform="matrix(1, 0, 0, 1, -379.3548278808594, -535.7419294118881)"/>

</svg>