<?xml version="1.0" encoding="utf-8"?>
<svg id="master-artboard" viewBox="0 0 322.32257080078125 332.7742004394531" version="1.1" xmlns="http://www.w3.org/2000/svg" x="0px" y="0px" enable-background="new 0 0 1400 980" width="322.32257080078125px" height="332.7742004394531px"><rect id="ee-background" x="0" y="0" width="322.32257080078125" height="332.7742004394531" style="fill: white; fill-opacity: 0; pointer-events: none;"/>
<radialGradient id="SVGID_1_" cx="702.5279" cy="490" r="1035.5322" gradientTransform="matrix(1 0 0 0.7175 0 138.4009)" gradientUnits="userSpaceOnUse">
		<stop offset="0" style="stop-color:#FFFFFF"/>
		<stop offset="0.5006" style="stop-color:#FCFEFF"/>
		<stop offset="0.6809" style="stop-color:#F3FAFE"/>
		<stop offset="0.8094" style="stop-color:#E7F6FD"/>
		<stop offset="0.9126" style="stop-color:#D5EFFC"/>
		<stop offset="1" style="stop-color:#BFE7FB"/>
	</radialGradient>
<path d="M 1367.400055 696.599976 A 153.600006 153.600006 0 0 1 1213.800049 850.199982 A 153.600006 153.600006 0 0 1 1060.200043 696.599976 A 153.600006 153.600006 0 0 1 1213.800049 542.999969 A 153.600006 153.600006 0 0 1 1367.400055 696.599976 Z" fill="none" stroke="#00AAAD" stroke-width="5" stroke-linecap="round" stroke-linejoin="round" stroke-miterlimit="10" transform="matrix(1, 0, 0, 1, -1052.9031896591187, -531.0967407226562)"/><path d="M 1284.599951 608.599976 A 15.9 15.9 0 0 1 1268.699951 624.499975 A 15.9 15.9 0 0 1 1252.799952 608.599976 A 15.9 15.9 0 0 1 1268.699951 592.699976 A 15.9 15.9 0 0 1 1284.599951 608.599976 Z" fill="none" stroke="#00AAAD" stroke-width="5" stroke-linecap="round" stroke-linejoin="round" stroke-miterlimit="10" transform="matrix(1, 0, 0, 1, -1052.9031896591187, -531.0967407226562)"/><path fill="none" stroke="#00AAAD" stroke-width="5" stroke-linecap="round" stroke-linejoin="round" stroke-miterlimit="10" d="&#10;&#9;&#9;&#9;M1216.8,651.5l1.6,13.4c0,0,37.3,2.1,42.2,1.6c4.9-0.5,19.7-4.9,19.7-4.9" transform="matrix(1, 0, 0, 1, -1052.9031896591187, -531.0967407226562)"/><path fill="none" stroke="#00AAAD" stroke-width="5" stroke-linecap="round" stroke-linejoin="round" stroke-miterlimit="10" d="&#10;&#9;&#9;&#9;M1271.2,670.6c0,0,2.3,18.3,2.3,20.2c0,1.9-27.7,16.4-29.8,18.3c-2.1,1.9-13.6,38.2-13.6,38.2" transform="matrix(1, 0, 0, 1, -1052.9031896591187, -531.0967407226562)"/><path fill="none" stroke="#00AAAD" stroke-width="5" stroke-linecap="round" stroke-linejoin="round" stroke-miterlimit="10" d="&#10;&#9;&#9;&#9;M1223.8,732c0,0-43.6-15-47.9-13.4c-4.2,1.6,10.3,32.8,47.9,42.2c37.5,9.4,67.1,2.6,68-4.5c0.9-7-40-16.2-40-16.2&#10;&#9;&#9;&#9;s4.3-14.8,6.9-16.7c2.6-1.9,40.8-14.5,45-19.9c4.2-5.4-8.2-59.6-11.7-66.6s-15.3-6.3-21.1,0s-19.5,15.7-22.4,16.7&#10;&#9;&#9;&#9;c-2.9,0.9-47.3-3.3-73.3-7.7" transform="matrix(1, 0, 0, 1, -1052.9031896591187, -531.0967407226562)"/><path d="M 1218.400024 664.900024 L 1182.099976 666.599976" fill="none" stroke="#00AAAD" stroke-width="5" stroke-linecap="round" stroke-linejoin="round" stroke-miterlimit="10" transform="matrix(1, 0, 0, 1, -1052.9031896591187, -531.0967407226562)"/><path fill="none" stroke="#00AAAD" stroke-width="5" stroke-linecap="round" stroke-linejoin="round" stroke-miterlimit="10" d="&#10;&#9;&#9;&#9;M1291.4,775.6c0,0-18.4,19.4-51.4,7.5c-33-11.9-86.9-38-119.1,3.9" transform="matrix(1, 0, 0, 1, -1052.9031896591187, -531.0967407226562)"/><path fill="none" stroke="#00AAAD" stroke-width="5" stroke-linecap="round" stroke-linejoin="round" stroke-miterlimit="10" d="&#10;&#9;&#9;&#9;M1309.6,775.5c0,0-24.6,34.2-57.7,33.5c-45.7-0.6-64.3-33-107.2-22.1" transform="matrix(1, 0, 0, 1, -1052.9031896591187, -531.0967407226562)"/>

</svg>