<?xml version="1.0" encoding="utf-8"?>
<svg id="master-artboard" viewBox="0 0 334.7096862792969 334.3226318359375" version="1.1" xmlns="http://www.w3.org/2000/svg" x="0px" y="0px" enable-background="new 0 0 1400 980" width="334.7096862792969px" height="334.3226318359375px"><rect id="ee-background" x="0" y="0" width="334.7096862792969" height="334.3226318359375" style="fill: white; fill-opacity: 0; pointer-events: none;"/>
<radialGradient id="SVGID_1_" cx="702.5279" cy="490" r="1035.5322" gradientTransform="matrix(1 0 0 0.7175 0 138.4009)" gradientUnits="userSpaceOnUse">
		<stop offset="0" style="stop-color:#FFFFFF"/>
		<stop offset="0.5006" style="stop-color:#FCFEFF"/>
		<stop offset="0.6809" style="stop-color:#F3FAFE"/>
		<stop offset="0.8094" style="stop-color:#E7F6FD"/>
		<stop offset="0.9126" style="stop-color:#D5EFFC"/>
		<stop offset="1" style="stop-color:#BFE7FB"/>
	</radialGradient>
<path d="M 1367.400055 274.600006 A 153.600006 153.600006 0 0 1 1213.800049 428.200012 A 153.600006 153.600006 0 0 1 1060.200043 274.600006 A 153.600006 153.600006 0 0 1 1213.800049 121 A 153.600006 153.600006 0 0 1 1367.400055 274.600006 Z" fill="none" stroke="#00AAAD" stroke-width="5" stroke-linecap="round" stroke-linejoin="round" stroke-miterlimit="10" transform="matrix(1, 0, 0, 1, -1045.1612548828125, -108.38708877563477)"/><path d="M 1222.700001 202.699997 A 16.200001 16.200001 0 0 1 1206.5 218.899998 A 16.200001 16.200001 0 0 1 1190.299999 202.699997 A 16.200001 16.200001 0 0 1 1206.5 186.499996 A 16.200001 16.200001 0 0 1 1222.700001 202.699997 Z" fill="none" stroke="#00AAAD" stroke-width="5" stroke-linecap="round" stroke-linejoin="round" stroke-miterlimit="10" transform="matrix(1, 0, 0, 1, -1045.1612548828125, -108.38708877563477)"/><path fill="none" stroke="#00AAAD" stroke-width="5" stroke-linecap="round" stroke-linejoin="round" stroke-miterlimit="10" d="&#10;&#9;&#9;&#9;M1151.9,293.2c0,0,26.4-54.8,29.7-60.9c3.3-6.1,21.8-4.2,25,0c3.2,4.2,12.5,19.7,16.2,21.1c3.8,1.4,11.7,0.9,11.7,0.9l6.6-9.8&#10;&#9;&#9;&#9;l8,5.2l-31.9,81.7c0,0-31.9,4.5-45.5-17.1c0,0-17.8,28.1-39.4,24.4s-39.4-47.5-40.8-71.1c0,0,7-9.7,20.1,0&#10;&#9;&#9;&#9;c13.1,9.7,30.5,28.1,58.6,28.7" transform="matrix(1, 0, 0, 1, -1045.1612548828125, -108.38708877563477)"/><path d="M 1192.300049 279.799988 L 1208.699951 283.700012 L 1208.300049 299.5 L 1217.199951 296.399994 L 1229.400024 267.600006 L 1215.800049 273 L 1199.400024 260 L 1187.199951 290.899994" fill="none" stroke="#00AAAD" stroke-width="5" stroke-linecap="round" stroke-linejoin="round" stroke-miterlimit="10" transform="matrix(1, 0, 0, 1, -1045.1612548828125, -108.38708877563477)"/><path fill="none" stroke="#00AAAD" stroke-width="5" stroke-linecap="round" stroke-linejoin="round" stroke-miterlimit="10" d="&#10;&#9;&#9;&#9;M1239.2,295.6c0,0,18.3,3.7,40.8-6.1c22.5-9.8,31.4-21.2,38.9-21.9c7.5-0.6,14.7-0.3,17.8,3.6c3.1,3.9-16.9,67.2-40.3,67.8&#10;&#9;&#9;&#9;c-23.4,0.6-40.3-23.8-40.3-23.8s-10.3,10.7-26.7,13.6" transform="matrix(1, 0, 0, 1, -1045.1612548828125, -108.38708877563477)"/><path fill="none" stroke="#00AAAD" stroke-width="5" stroke-linecap="round" stroke-linejoin="round" stroke-miterlimit="10" d="&#10;&#9;&#9;&#9;M1101,353.7c0,0,41.6,26.9,74.5-14.7c0,0,39.8,27.3,75.9-3.6c0,0,23.9,42.6,72.2,19.2" transform="matrix(1, 0, 0, 1, -1045.1612548828125, -108.38708877563477)"/>

</svg>