<?xml version="1.0" encoding="utf-8"?>
<svg id="master-artboard" viewBox="0 0 326.9677734375 325.03228759765625" version="1.1" xmlns="http://www.w3.org/2000/svg" x="0px" y="0px" enable-background="new 0 0 1400 980" width="326.9677734375px" height="325.03228759765625px"><rect id="ee-background" x="0" y="0" width="326.9677734375" height="325.03228759765625" style="fill: white; fill-opacity: 0; pointer-events: none;"/>
<radialGradient id="SVGID_1_" cx="702.5279" cy="490" r="1035.5322" gradientTransform="matrix(1 0 0 0.7175 0 138.4009)" gradientUnits="userSpaceOnUse">
		<stop offset="0" style="stop-color:#FFFFFF"/>
		<stop offset="0.5006" style="stop-color:#FCFEFF"/>
		<stop offset="0.6809" style="stop-color:#F3FAFE"/>
		<stop offset="0.8094" style="stop-color:#E7F6FD"/>
		<stop offset="0.9126" style="stop-color:#D5EFFC"/>
		<stop offset="1" style="stop-color:#BFE7FB"/>
	</radialGradient>
<path d="M 693.300018 274.600006 A 153.600006 153.600006 0 0 1 539.700012 428.200012 A 153.600006 153.600006 0 0 1 386.100006 274.600006 A 153.600006 153.600006 0 0 1 539.700012 121 A 153.600006 153.600006 0 0 1 693.300018 274.600006 Z" fill="none" stroke="#00AAAD" stroke-width="5" stroke-linecap="round" stroke-linejoin="round" stroke-miterlimit="10" transform="matrix(1, 0, 0, 1, -376.2580261230469, -113.0322494506836)"/><path d="M 552.699987 224.899994 A 16.9 16.9 0 0 1 535.799988 241.799994 A 16.9 16.9 0 0 1 518.899988 224.899994 A 16.9 16.9 0 0 1 535.799988 207.999994 A 16.9 16.9 0 0 1 552.699987 224.899994 Z" fill="none" stroke="#00AAAD" stroke-width="5" stroke-linecap="round" stroke-linejoin="round" stroke-miterlimit="10" transform="matrix(1, 0, 0, 1, -376.2580261230469, -113.0322494506836)"/><path fill="none" stroke="#00AAAD" stroke-width="5" stroke-linecap="round" stroke-linejoin="round" stroke-miterlimit="10" d="&#10;&#9;&#9;&#9;M568.8,249.1l3.9-19.1l-5.8-16.5l11-39.9l30.8,8.1l-9.1,38.2l-13.6,13l-32.7,142l-17.5,1.3l7.4-30.1c0,0-15.8-12-53.4-11.3&#10;&#9;&#9;&#9;s-65.8,10.4-65.8,10.4s22.4-40.4,73.3-38c0,0,2.9-37.2,22-47.6C538.4,249.1,568.8,249.1,568.8,249.1z" transform="matrix(1, 0, 0, 1, -376.2580261230469, -113.0322494506836)"/><path d="M 566.2000122070312 263.70001220703125 L 543.2000122070312 273.5 L 561.7000122070312 285.3999938964844 Z" fill="none" stroke="#00AAAD" stroke-width="5" stroke-linecap="round" stroke-linejoin="round" stroke-miterlimit="10" transform="matrix(1, 0, 0, 1, -376.2580261230469, -113.0322494506836)"/><path fill="none" stroke="#00AAAD" stroke-width="5" stroke-linecap="round" stroke-linejoin="round" stroke-miterlimit="10" d="&#10;&#9;&#9;&#9;M543.2,273.5c0,0-2.5,6.8-2.8,18.8c-0.1,4.6,0.1,10.1,0.9,16.2h14.9v-9.1l-15.8-5.5" transform="matrix(1, 0, 0, 1, -376.2580261230469, -113.0322494506836)"/><path fill="none" stroke="#00AAAD" stroke-width="5" stroke-linecap="round" stroke-linejoin="round" stroke-miterlimit="10" d="&#10;&#9;&#9;&#9;M576,309.8c0,0,28.5-6.5,47.3-15.9c0,0-2.9,22-14.6,36.3" transform="matrix(1, 0, 0, 1, -376.2580261230469, -113.0322494506836)"/><path fill="none" stroke="#00AAAD" stroke-width="5" stroke-linecap="round" stroke-linejoin="round" stroke-miterlimit="10" d="&#10;&#9;&#9;&#9;M588.6,327.9c0,0,19.1,4.2,37.6,0s34.4-11.7,34.4-11.7s-27.2,58.3-91.4,34.7" transform="matrix(1, 0, 0, 1, -376.2580261230469, -113.0322494506836)"/>

</svg>